<?xml version="1.0" standalone="no"?>
<!DOCTYPE svg PUBLIC "-//W3C//DTD SVG 20010904//EN"
 "http://www.w3.org/TR/2001/REC-SVG-20010904/DTD/svg10.dtd">
<svg version="1.0" xmlns="http://www.w3.org/2000/svg"
 width="501.000000pt" height="501.000000pt" viewBox="0 0 501.000000 501.000000"
 preserveAspectRatio="xMidYMid meet">
<metadata>
Created by potrace 1.11, written by Peter Selinger 2001-2013
</metadata>
<g transform="translate(0.000000,501.000000) scale(0.100000,-0.100000)"
fill="#000000" stroke="none">
<path d="M1778 4607 c-20 -5 -54 -24 -76 -43 -73 -62 -71 -38 -71 -846 1 -709
1 -718 22 -760 25 -51 48 -73 103 -99 40 -18 71 -19 757 -19 695 0 716 1 760
20 51 23 99 75 113 123 6 19 9 328 9 757 l-1 725 -22 42 c-21 40 -65 81 -107
98 -27 12 -1441 14 -1487 2z m255 -278 c12 -7 36 -24 53 -38 39 -32 53 -43
178 -141 72 -55 97 -86 98 -118 1 -19 -7 -41 -18 -53 -31 -35 -235 -179 -253
-179 -14 0 -14 2 -1 10 13 9 13 10 0 10 -13 0 -13 1 0 10 12 8 12 10 1 10 -8
0 -12 3 -8 6 3 3 -5 17 -18 30 -40 40 -41 62 -3 95 18 15 40 31 50 34 38 13
25 34 -68 105 -52 39 -103 83 -114 97 -57 73 21 165 103 122z"/>
<path d="M637 2413 c-3 -7 -2 -1021 2 -1064 2 -23 42 -66 73 -78 17 -6 207
-10 507 -10 l479 -1 0 115 c0 75 -4 115 -12 117 -6 2 -192 4 -413 3 -353 0
-402 1 -405 15 -2 8 -3 216 -2 463 l1 447 -113 0 c-62 0 -115 -3 -117 -7z"/>
<path d="M2041 2407 c-13 -6 -34 -25 -45 -40 -20 -28 -21 -38 -22 -435 -1
-438 2 -466 51 -540 33 -50 113 -105 175 -120 30 -8 172 -11 435 -9 l389 2 1
115 1 115 -393 0 c-361 0 -394 1 -410 18 -16 16 -18 46 -18 342 0 319 0 326
20 330 11 2 192 3 403 3 210 -1 386 2 390 6 4 4 7 57 7 117 l1 109 -481 0
c-361 0 -486 -3 -504 -13z"/>
<path d="M3414 2408 c-12 -5 -31 -27 -42 -47 -18 -32 -21 -53 -21 -171 1 -74
0 -232 0 -350 -1 -118 -1 -217 -1 -220 1 -3 2 -34 4 -70 4 -115 63 -207 164
-257 l57 -28 415 0 415 0 0 108 c0 60 -2 112 -5 116 -3 3 -179 6 -392 6 -358
0 -389 1 -405 18 -16 16 -18 45 -18 345 l0 327 390 2 c215 1 399 2 410 2 19 1
20 8 20 114 l-1 112 -484 2 c-317 1 -492 -2 -506 -9z"/>
<path d="M2266 1952 c-5 -8 -8 -96 -7 -177 l1 -51 330 1 c239 0 333 3 338 12
5 9 8 185 3 214 -1 9 -660 9 -665 1z"/>
<path d="M3639 1932 c-1 -30 0 -167 0 -193 1 -14 15 -16 86 -17 55 0 91 -4
101 -13 14 -11 14 -13 -1 -22 -13 -7 -14 -11 -3 -25 11 -13 11 -15 -2 -7 -12
6 -13 5 -2 -6 18 -20 48 2 44 32 -2 19 0 21 8 9 5 -8 10 -11 10 -6 0 5 6 3 14
-3 15 -13 76 -12 76 1 0 4 7 8 15 8 7 0 18 8 24 17 8 15 29 17 148 18 76 1
143 3 148 3 6 1 9 45 7 116 l-3 115 -335 0 -334 0 -1 -27z"/>
<path d="M3709 1658 c-6 -20 -5 -38 2 -49 7 -12 9 -11 9 1 0 12 2 12 9 2 7
-11 9 -11 14 1 3 7 1 20 -4 28 -7 11 -9 11 -9 1 0 -7 -5 -10 -10 -7 -6 4 -8
11 -5 16 4 5 4 9 1 9 -3 0 -6 -1 -7 -2z"/>
<path d="M3255 1580 c-4 -6 -10 -8 -14 -6 -4 3 -8 -1 -8 -9 0 -13 4 -12 19 2
18 16 22 23 14 23 -3 0 -8 -5 -11 -10z"/>
<path d="M3259 1443 c-13 -16 -12 -17 4 -4 16 13 21 21 13 21 -2 0 -10 -8 -17
-17z"/>
<path d="M1558 808 c-10 -6 -9 -8 4 -8 21 0 25 -6 32 -52 l6 -37 -43 3 c-84 7
-121 -31 -123 -126 -1 -48 3 -62 25 -88 31 -35 73 -45 111 -25 19 10 30 11 38
3 6 -6 17 -8 25 -5 12 4 14 34 13 159 -1 84 -5 158 -9 164 -9 15 -63 23 -79
12z m17 -120 c14 -6 24 -17 21 -24 -2 -6 1 -17 7 -24 9 -10 9 -11 0 -6 -9 5
-11 2 -7 -9 4 -9 11 -12 18 -8 7 5 5 1 -4 -7 -9 -8 -15 -28 -14 -44 2 -47 -6
-64 -35 -74 -47 -17 -74 20 -73 101 1 50 19 95 40 100 10 3 18 5 19 6 1 0 14
-4 28 -11z"/>
<path d="M2340 809 c-24 -7 -24 -7 -2 -8 25 -1 31 -12 35 -56 2 -29 0 -30 -36
-28 -96 6 -152 -83 -116 -186 6 -17 15 -31 21 -31 5 0 7 -4 3 -9 -3 -5 5 -13
17 -17 34 -10 90 -6 99 8 6 9 11 9 23 -1 36 -30 42 -10 41 150 0 85 -4 159 -8
165 -9 16 -46 22 -77 13z m25 -133 c17 -23 12 -166 -7 -177 -29 -19 -65 -10
-77 19 -25 62 -14 152 22 174 18 11 48 3 62 -16z"/>
<path d="M3200 810 c-6 -4 -1 -11 13 -17 24 -11 24 -12 23 -163 -1 -118 2
-154 12 -158 7 -2 18 0 24 6 8 8 19 7 38 -3 26 -13 48 -13 89 0 47 14 69 131
37 192 -22 43 -73 61 -120 43 -25 -9 -26 -9 -26 34 0 24 -6 48 -12 53 -17 14
-64 22 -78 13z m177 -132 c7 -7 15 -37 18 -66 9 -92 -34 -151 -84 -115 -18 12
-21 25 -21 98 0 69 3 86 17 94 21 11 52 6 70 -11z"/>
<path d="M3482 812 c-7 -2 -12 -8 -12 -13 0 -4 6 -6 14 -3 25 9 29 -15 30
-172 1 -84 3 -154 6 -157 3 -3 14 -1 26 3 20 8 21 14 19 165 -1 144 -3 158
-21 168 -21 12 -44 15 -62 9z"/>
<path d="M984 713 c-68 -13 -101 -114 -63 -191 22 -44 43 -55 107 -54 42 1 94
33 78 49 -4 4 -11 2 -15 -6 -4 -7 -25 -16 -45 -21 -47 -10 -72 10 -83 65 -15
75 6 128 57 140 29 7 70 -22 70 -49 0 -9 4 -16 9 -16 13 0 7 58 -7 72 -12 12
-73 18 -108 11z"/>
<path d="M1210 698 c-16 -9 -33 -26 -39 -36 -15 -28 -20 -105 -8 -119 5 -7 6
-13 3 -13 -4 0 3 -11 16 -24 32 -35 68 -46 112 -36 63 14 80 39 90 132 6 56
-60 121 -119 116 -15 -2 -40 -10 -55 -20z m101 -33 c21 -34 25 -101 8 -139
-17 -36 -59 -48 -84 -24 -28 27 -29 146 -2 176 26 28 57 23 78 -13z"/>
<path d="M1763 701 c-42 -26 -55 -54 -55 -112 0 -73 38 -120 102 -124 29 -2
70 16 89 39 17 20 13 20 -32 -3 -57 -29 -94 -12 -103 48 -6 34 -12 32 91 34
l60 2 -2 40 c-5 75 -85 116 -150 76z m76 -22 c14 -14 21 -30 19 -47 -3 -25 -7
-27 -50 -28 -42 -2 -48 1 -48 18 0 32 29 77 51 78 3 0 15 -9 28 -21z"/>
<path d="M2534 697 c-15 -11 -32 -34 -39 -50 -17 -41 -8 -113 18 -143 25 -29
92 -50 111 -35 7 6 16 8 19 4 4 -3 7 -1 7 5 0 7 6 12 14 12 8 0 16 7 20 15 3
9 0 15 -8 15 -8 0 -16 -7 -20 -15 -7 -18 -65 -20 -89 -2 -9 6 -20 27 -23 45
-7 36 -9 35 87 33 62 -2 69 4 62 56 -11 69 -103 105 -159 60z m93 -28 c7 -13
13 -34 13 -45 0 -20 -5 -22 -51 -21 l-51 0 7 36 c11 60 58 78 82 30z"/>
<path d="M2722 706 c19 -14 78 -128 97 -188 12 -35 41 -72 41 -50 0 6 16 45
36 89 74 161 71 153 52 153 -7 0 -28 -37 -47 -81 l-34 -81 -34 74 c-29 62 -40
77 -67 86 -45 16 -66 15 -44 -2z"/>
<path d="M3705 713 c-27 -7 -75 -62 -76 -87 -1 -12 -2 -28 -3 -36 -2 -20 20
-77 36 -93 50 -50 146 -36 179 24 27 52 17 129 -24 167 -23 21 -78 34 -112 25z
m68 -33 c26 -31 36 -91 22 -134 -20 -56 -31 -66 -65 -55 -34 12 -49 49 -46
110 4 57 14 79 40 89 30 12 30 12 49 -10z"/>
<path d="M3950 702 c-30 -14 -35 -23 -38 -55 -2 -26 2 -45 13 -57 11 -12 14
-26 10 -41 -5 -13 -2 -24 6 -30 9 -5 6 -11 -14 -20 -33 -15 -45 -61 -23 -94
14 -22 60 -39 99 -38 9 0 29 1 45 2 38 2 70 30 75 67 8 50 -27 80 -105 89 -75
10 -75 32 1 36 75 5 117 73 74 121 -15 17 -15 18 0 18 10 0 17 5 17 10 0 17
-122 12 -160 -8z m91 -18 c44 -53 -17 -137 -65 -89 -18 18 -14 84 6 96 20 13
44 11 59 -7z m-5 -184 c7 0 20 -12 28 -28 12 -24 12 -31 -1 -55 -13 -25 -19
-28 -56 -25 -32 2 -44 8 -53 27 -22 44 12 97 54 85 8 -2 20 -4 28 -4z"/>
<path d="M105 511 c3 -5 1 -12 -5 -16 -5 -3 -10 -12 -10 -18 0 -7 5 -4 11 6 9
15 13 16 27 5 12 -9 12 -6 -2 10 -19 22 -32 30 -21 13z"/>
<path d="M1971 501 c-11 -20 -1 -35 24 -36 14 -1 6 -39 -11 -48 -19 -11 -18
-28 1 -20 22 8 43 53 41 88 -1 37 -38 48 -55 16z"/>
<path d="M2985 510 c-10 -16 5 -50 21 -50 18 0 18 -10 -2 -38 -9 -13 -14 -25
-11 -28 6 -7 47 45 48 62 1 8 2 20 3 27 3 28 -45 50 -59 27z"/>
<path d="M133 442 c4 -17 2 -22 -7 -19 -7 3 -13 -1 -13 -9 0 -7 4 -11 9 -8 7
5 12 -10 9 -29 -1 -5 3 -6 8 -2 6 3 10 -5 9 -17 0 -13 0 -32 1 -43 1 -17 3
-18 11 -5 7 11 10 11 10 2 0 -7 5 -10 11 -6 8 4 3 12 -12 21 -13 8 -16 12 -7
9 10 -3 20 0 24 6 4 6 3 8 -2 5 -6 -3 -16 -2 -24 4 -9 5 -10 9 -3 9 13 0 12
18 -2 40 -5 8 -11 24 -12 34 -2 11 -6 22 -10 25 -3 3 -3 -4 0 -17z"/>
<path d="M12 371 c0 -28 3 -53 8 -56 4 -2 6 6 5 18 0 12 2 29 6 37 4 8 1 24
-6 34 -12 16 -14 13 -13 -33z"/>
<path d="M63 313 c-17 -6 -17 -20 0 -20 8 0 14 6 14 14 0 7 -1 13 -1 12 -1 0
-7 -3 -13 -6z"/>
<path d="M28 283 c-10 -3 -18 -13 -18 -22 0 -14 6 -17 25 -13 14 2 25 8 25 13
0 5 8 9 17 9 9 0 14 2 11 5 -8 8 -41 12 -60 8z"/>
</g>
</svg>
